# xmcd CD database file
#
# Track frame offsets:
#	150
#	16473
#	31098
#	50448
#	68110
#	83485
#	100550
#	122292
#	137422
#	156202
#	169872
#	186607
#	196435
#
# Disc length: 2935 seconds
#
# Revision: 0
# Processed by: cddbd v1.5.1PL2 Copyright (c) Steve Scherf et al.
# Submitted via: CDex 1.50Beta7
#
DISCID=9f0b750d
DTITLE=村八分 - 村八分BOX (Disc1 1971年 スタジオ＆ライブ)
DYEAR=2005
DGENRE=Rock
TTITLE0=どうしようかな (1971年4月30日 大阪 スタジオ)
TTITLE1=のんだくれ (1971年4月30日 大阪 スタジオ)
TTITLE2=くたびれて (1971年4月30日 大阪 スタジオ)
TTITLE3=あやつり人形 (1971年4月30日 大阪 スタジオ)
TTITLE4=ドラネコ (1971年4月30日 大阪 スタジオ)
TTITLE5=あっ！ (1971年4月30日 大阪 スタジオ)
TTITLE6=裸の街 (1971年6月20日 日比谷野外音楽堂ライブ「ストッピング！No.1」)
TTITLE7=あやつり人形 (1971年6月20日 日比谷野外音楽堂ライブ「ストッピング！No.1」)
TTITLE8=どうしようかな (1971年6月20日 日比谷野外音楽堂ライブ「ストッピング！No.1」)
TTITLE9=機関車25 (1971年6月20日 日比谷野外音楽堂ライブ「ストッピング！No.1」)
TTITLE10=はなからちょうちん (1971年6月20日 日比谷野外音楽堂ライブ「ストッピング！No.1」)
TTITLE11=インスト1 (1971年 スタジオ)
TTITLE12=インスト2 (1971年 スタジオ)
EXTD=YEAR: 2005
EXTT0=
EXTT1=
EXTT2=
EXTT3=
EXTT4=
EXTT5=
EXTT6=
EXTT7=
EXTT8=
EXTT9=
EXTT10=
EXTT11=
EXTT12=
PLAYORDER=
